# xmcd CD database file
#
# Track frame offsets:
#	150
#	18803
#	22073
#	39704
#	50496
#	68516
#	85090
#	87586
#	116590
#	129055
#	145849
#	155488
#	169122
#
# Disc length: 2403 seconds
#
# Revision: 0
# Processed by: cddbd v1.5.2PL0 Copyright (c) Steve Scherf et al.
# Submitted via: CDex 1.70beta2
#
DISCID=a109610d
DTITLE=The New Orleans Bingo! Show - Volume II: For a Life Ever Bright
DYEAR=2008
DGENRE=Jazz
TTITLE0=New Orleans
TTITLE1=rOnNiE nUmBeRs InTrO
TTITLE2=In a Lounge With Broken Wings
TTITLE3=Shoeshine Blues
TTITLE4=Mid City Baby
TTITLE5=Lost and Found
TTITLE6=Solace (interlude)
TTITLE7=Johnny Christ
TTITLE8=For a Life Ever Bright
TTITLE9=Something In Her Shows
TTITLE10=Pierre Pressure
TTITLE11=On the Tip of My Tongue
TTITLE12=Orlando Godwash Strikes Again!
EXTD=YEAR: 2008
EXTT0=
EXTT1=
EXTT2=
EXTT3=
EXTT4=
EXTT5=
EXTT6=
EXTT7=
EXTT8=
EXTT9=
EXTT10=
EXTT11=
EXTT12=
PLAYORDER=
